<?xml version="1.0" encoding="utf-8"?>
<!-- Generator: Adobe Illustrator 22.1.0, SVG Export Plug-In . SVG Version: 6.00 Build 0)  -->
<svg version="1.1" id="Layer_1" xmlns="http://www.w3.org/2000/svg" xmlns:xlink="http://www.w3.org/1999/xlink" x="0px" y="0px"
	 viewBox="0 0 407 136" style="enable-background:new 0 0 407 136;" xml:space="preserve">
<style type="text/css">
	.st0{fill:#D11046;}
	.st1{fill:#FFFFFF;}
</style>
<g>
	<path class="st0" d="M40.7,8.5H30c0,0-23,0-23,23v2.2C23.5,33.4,39.1,26.7,40.7,8.5z"/>
	<path class="st0" d="M74.5,96.9h32c0.7,2.6,2.8,5.1,5.4,6.5c2.8,1.4,5.9,1.7,8.4,1.7c15.7,0,19.9-14.5,21.8-24.5l-0.3-0.3
		c-7.7,6.6-16.9,9.6-27.3,9.6c-23.8,0-41.2-13.6-41.2-38.6c0-22.6,13.8-37.2,32.7-42.8H69.4v119H101
		C87.4,123.2,77.2,113.6,74.5,96.9z"/>
	<path class="st0" d="M7,58.8v45.7c0,0,0,23,23,23h3.1V58.8H7z"/>
	<path class="st0" d="M123.2,33.5c-9.3,0-17.8,7.2-17.8,16.8c0,9.4,8.4,16.4,17.5,16.4c9.4,0,17.5-6.5,17.5-16.2
		C140.4,40.8,132.9,33.5,123.2,33.5z"/>
	<path class="st1" d="M69.4,7.3H40.8c0,0.4-0.1,0.8-0.1,1.2h28.7V7.3z"/>
</g>
<path class="st0" d="M303.5,128.9h34.6V81c0-14.5,7.9-17.5,13.8-17.5c10.1,0,11.4,7.3,11.4,17.8v47.5h34.6V66.7
	c0-20.8-14.8-30.7-31.1-30.7c-13.8,0-23.1,4.7-29.5,13.8h-0.4V38.2h-33.4V128.9z M306.5,91.3c0-35.3-15.5-55.4-51.5-55.4
	c-28.7,0-47.9,21.5-47.9,47.9c0,30.2,21.8,47.3,50.8,47.3c20.6,0,39.7-9.1,46.6-28.7h-32.3c-2.8,4.4-8.9,6.5-14.5,6.5
	c-10.8,0-16.8-7.3-17.6-17.6H306.5z M240.3,73.3c1.6-9.8,7.5-15.2,17.8-15.2c8.9,0,15.2,6.8,15.2,15.2H240.3z M198.9,10.6h-34.6
	v27.6h-15.4v21.3h15.4v43.3c0,24.8,16.2,27.1,30.9,27.1c7.3,0,15.2-1,22.2-1v-26.2c-2.6,0.3-5.2,0.5-7.9,0.5
	c-8.7,0-10.7-3.7-10.7-12.1V59.5h18.5V38.2h-18.5V10.6z"/>
</svg>
