<?xml version="1.0" encoding="utf-8"?>
<!-- Generator: Adobe Illustrator 24.0.1, SVG Export Plug-In . SVG Version: 6.00 Build 0)  -->
<svg version="1.1" id="Layer_1" xmlns="http://www.w3.org/2000/svg" xmlns:xlink="http://www.w3.org/1999/xlink" x="0px" y="0px"
	 viewBox="0 0 407 136" style="enable-background:new 0 0 407 136;" xml:space="preserve">
<style type="text/css">
	.st0{fill:#FFFFFF;}
</style>
<g>
	<path class="st0" d="M7,31.5v2.2c16.5-0.3,32.1-7,33.7-25.2H30C30,8.5,7,8.5,7,31.5z"/>
	<path class="st0" d="M114.5,89.9c-23.8,0-41.2-13.6-41.2-38.6c0-22.6,13.8-37.2,32.7-42.8H69.4v119H101
		c-13.6-4.3-23.8-13.9-26.5-30.6h32c0.7,2.6,2.8,5.1,5.4,6.5c2.8,1.4,5.9,1.7,8.4,1.7c15.7,0,19.9-14.5,21.8-24.5l-0.3-0.3
		C134.1,86.9,124.9,89.9,114.5,89.9z"/>
	<path class="st0" d="M7,104.5c0,0,0,23,23,23h3.1V58.8H7V104.5z"/>
	<path class="st0" d="M122.9,66.7c9.4,0,17.5-6.5,17.5-16.2s-7.5-17-17.2-17c-9.3,0-17.8,7.2-17.8,16.8
		C105.4,59.7,113.8,66.7,122.9,66.7z"/>
	<path class="st0" d="M366.8,36c-13.8,0-23.1,4.7-29.5,13.8h-0.4V38.2h-33.4v29.5C297.4,47.2,282,35.9,255,35.9
		c-16.2,0-29.3,6.8-37.7,17.5V38.2h-18.5V10.6h-34.5v27.6h-15.4v21.3h15.4v43.3c0,24.8,16.2,27.1,30.9,27.1c7.3,0,15.2-1,22.2-1
		v-14.5c9.1,10.8,23.6,16.7,40.5,16.7c19.7,0,38-8.3,45.6-26.2v24h34.6V81c0-14.5,7.9-17.5,13.8-17.5c10.1,0,11.4,7.3,11.4,17.8
		v47.5h34.6V66.7C397.9,45.9,383.1,36,366.8,36z M209.5,103.2c-8.7,0-10.7-3.7-10.7-12.1V59.5h14.4c-4,7.1-6.1,15.4-6.1,24.3
		c0,7.2,1.3,13.7,3.6,19.4C210.3,103.2,209.9,103.2,209.5,103.2z M258.1,58.1c8.9,0,15.2,6.8,15.2,15.2h-33
		C241.9,63.5,247.8,58.1,258.1,58.1z M272.2,102.4c-2.8,4.4-8.9,6.5-14.5,6.5c-10.8,0-16.8-7.3-17.6-17.6c0,0,57.9,0,63.4,0v11.1
		H272.2z"/>
</g>
</svg>
